<svg width="146" height="40" viewBox="0 0 146 40" fill="none" xmlns="http://www.w3.org/2000/svg">
<g filter="url(#filter0_i_3_3223)">
<rect y="2" width="36" height="36" rx="8" fill="url(#paint0_linear_3_3223)"/>
</g>
<path fill-rule="evenodd" clip-rule="evenodd" d="M14.6081 10V11.6667H13.1081V10H14.6081ZM10.197 11.1363L11.447 12.3863L10.3863 13.447L9.13634 12.197L10.197 11.1363ZM16.2197 12.3863L17.4697 11.1363L18.5303 12.197L17.2803 13.447L16.2197 12.3863ZM8 15.1081H9.66667V16.6081H8V15.1081ZM9.13634 19.4697L10.3863 18.2197L11.447 19.2803L10.197 20.5303L9.13634 19.4697Z" fill="white"/>
<path fill-rule="evenodd" clip-rule="evenodd" d="M12.4697 14.4697C12.6705 14.2688 12.9677 14.1986 13.2372 14.2885L27.2372 18.9552C27.5434 19.0573 27.75 19.3439 27.75 19.6667C27.75 19.9895 27.5434 20.2761 27.2372 20.3782L20.5929 22.5929L18.3782 29.2372C18.2761 29.5434 17.9895 29.75 17.6667 29.75C17.3439 29.75 17.0573 29.5434 16.9552 29.2372L12.2885 15.2372C12.1987 14.9677 12.2688 14.6705 12.4697 14.4697ZM14.1859 16.1858L17.6667 26.6283L19.2885 21.7628C19.3631 21.5389 19.5389 21.3631 19.7628 21.2885L24.6283 19.6667L14.1859 16.1858Z" fill="white"/>
<path d="M137.761 9.83328V12.2279H130.209V9.83328H137.761ZM132.073 6.68607H135.169V19.0183C135.169 19.4345 135.232 19.7538 135.357 19.9762C135.489 20.1928 135.66 20.3411 135.871 20.4209C136.081 20.5007 136.315 20.5406 136.572 20.5406C136.766 20.5406 136.942 20.5264 137.102 20.4979C137.267 20.4694 137.393 20.4437 137.478 20.4209L138 22.8412C137.835 22.8982 137.598 22.9609 137.29 23.0293C136.988 23.0977 136.617 23.1377 136.178 23.1491C135.403 23.1719 134.705 23.055 134.083 22.7984C133.462 22.5361 132.968 22.1313 132.604 21.584C132.244 21.0367 132.068 20.3525 132.073 19.5315V6.68607Z" fill="#676E7B"/>
<path d="M128.776 9.83325V12.2279H121.011V9.83325H128.776ZM122.952 22.9694V8.59319C122.952 7.70946 123.135 6.97397 123.5 6.38672C123.87 5.79947 124.366 5.36045 124.988 5.06968C125.609 4.7789 126.299 4.63351 127.057 4.63351C127.593 4.63351 128.069 4.67628 128.486 4.7618C128.902 4.84732 129.21 4.92429 129.409 4.99271L128.794 7.38732C128.662 7.34741 128.497 7.3075 128.298 7.26759C128.098 7.22198 127.876 7.19918 127.63 7.19918C127.055 7.19918 126.647 7.33886 126.408 7.61823C126.174 7.8919 126.057 8.28531 126.057 8.79844V22.9694H122.952Z" fill="#676E7B"/>
<path d="M113.201 23.226C111.918 23.226 110.806 22.9437 109.865 22.3793C108.925 21.8149 108.195 21.0252 107.676 20.0103C107.163 18.9955 106.906 17.8096 106.906 16.4526C106.906 15.0957 107.163 13.9069 107.676 12.8863C108.195 11.8658 108.925 11.0733 109.865 10.5088C110.806 9.94439 111.918 9.66217 113.201 9.66217C114.484 9.66217 115.595 9.94439 116.536 10.5088C117.477 11.0733 118.204 11.8658 118.717 12.8863C119.236 13.9069 119.495 15.0957 119.495 16.4526C119.495 17.8096 119.236 18.9955 118.717 20.0103C118.204 21.0252 117.477 21.8149 116.536 22.3793C115.595 22.9437 114.484 23.226 113.201 23.226ZM113.218 20.7458C113.913 20.7458 114.495 20.5548 114.963 20.1728C115.43 19.7851 115.778 19.2663 116.006 18.6163C116.24 17.9664 116.357 17.2423 116.357 16.4441C116.357 15.6402 116.24 14.9132 116.006 14.2633C115.778 13.6076 115.43 13.0859 114.963 12.6982C114.495 12.3105 113.913 12.1167 113.218 12.1167C112.505 12.1167 111.912 12.3105 111.439 12.6982C110.971 13.0859 110.621 13.6076 110.387 14.2633C110.159 14.9132 110.045 15.6402 110.045 16.4441C110.045 17.2423 110.159 17.9664 110.387 18.6163C110.621 19.2663 110.971 19.7851 111.439 20.1728C111.912 20.5548 112.505 20.7458 113.218 20.7458Z" fill="#676E7B"/>
<path d="M104.636 13.3054L101.814 13.6133C101.734 13.3282 101.594 13.0602 101.394 12.8094C101.201 12.5585 100.938 12.3561 100.608 12.2022C100.277 12.0482 99.8722 11.9713 99.3933 11.9713C98.749 11.9713 98.2073 12.111 97.7683 12.3903C97.335 12.6697 97.1212 13.0317 97.1269 13.4765C97.1212 13.8584 97.2609 14.1692 97.546 14.4086C97.8368 14.6481 98.3157 14.8448 98.9827 14.9987L101.223 15.4777C102.466 15.7456 103.39 16.1704 103.994 16.7519C104.604 17.3335 104.912 18.0946 104.918 19.0354C104.912 19.8621 104.67 20.5919 104.191 21.2247C103.718 21.8519 103.059 22.3422 102.215 22.6957C101.372 23.0492 100.402 23.226 99.3077 23.226C97.6999 23.226 96.4057 22.8896 95.425 22.2168C94.4444 21.5383 93.86 20.5947 93.6718 19.386L96.6908 19.0952C96.8276 19.6882 97.1184 20.1358 97.5631 20.4379C98.0078 20.7401 98.5865 20.8912 99.2992 20.8912C100.035 20.8912 100.625 20.7401 101.069 20.4379C101.52 20.1358 101.745 19.7623 101.745 19.3176C101.745 18.9413 101.6 18.6306 101.309 18.3854C101.024 18.1403 100.579 17.9521 99.9748 17.821L97.7341 17.3506C96.4741 17.0883 95.5419 16.6465 94.9376 16.025C94.3332 15.3978 94.0339 14.6053 94.0396 13.6475C94.0339 12.8379 94.2534 12.1366 94.6981 11.5437C95.1485 10.945 95.7728 10.4832 96.571 10.1582C97.3749 9.82751 98.3014 9.66217 99.3505 9.66217C100.89 9.66217 102.101 9.99 102.985 10.6457C103.875 11.3013 104.425 12.1879 104.636 13.3054Z" fill="#676E7B"/>
<path d="M91.0698 5.45453V22.9694H87.9739V5.45453H91.0698Z" fill="#1C222C"/>
<path d="M77.9251 23.2345C77.0926 23.2345 76.3429 23.0863 75.6758 22.7898C75.0145 22.4876 74.4899 22.0429 74.1022 21.4557C73.7202 20.8684 73.5292 20.1443 73.5292 19.2834C73.5292 18.5422 73.6661 17.9293 73.9397 17.4447C74.2134 16.96 74.5868 16.5723 75.0601 16.2816C75.5333 15.9908 76.0664 15.7713 76.6593 15.6231C77.258 15.4691 77.8766 15.3579 78.5152 15.2895C79.2849 15.2097 79.9092 15.1384 80.3881 15.0757C80.867 15.0073 81.2148 14.9047 81.4315 14.7678C81.6538 14.6253 81.765 14.4058 81.765 14.1093V14.058C81.765 13.4137 81.574 12.9149 81.192 12.5614C80.81 12.2079 80.2598 12.0311 79.5414 12.0311C78.7831 12.0311 78.1816 12.1965 77.7369 12.5272C77.2979 12.8578 77.0014 13.2484 76.8475 13.6988L73.9568 13.2883C74.1849 12.4901 74.5612 11.823 75.0857 11.2871C75.6103 10.7454 76.2517 10.3406 77.01 10.0727C77.7683 9.79901 78.6064 9.66217 79.5243 9.66217C80.1572 9.66217 80.7872 9.73629 81.4144 9.88453C82.0415 10.0328 82.6145 10.2779 83.1333 10.62C83.6522 10.9564 84.0684 11.4154 84.382 11.9969C84.7013 12.5785 84.8609 13.3054 84.8609 14.1777V22.9694H81.8847V21.1649H81.7821C81.5939 21.5298 81.3288 21.8719 80.9867 22.1911C80.6504 22.5047 80.2256 22.7584 79.7125 22.9523C79.205 23.1404 78.6092 23.2345 77.9251 23.2345ZM78.729 20.9596C79.3504 20.9596 79.8892 20.837 80.3453 20.5919C80.8014 20.341 81.1521 20.0103 81.3972 19.5998C81.6481 19.1893 81.7735 18.7418 81.7735 18.2571V16.7092C81.6766 16.789 81.5113 16.8631 81.2775 16.9315C81.0495 17 80.7929 17.0598 80.5078 17.1111C80.2227 17.1625 79.9405 17.2081 79.6612 17.248C79.3818 17.2879 79.1395 17.3221 78.9342 17.3506C78.4724 17.4133 78.059 17.5159 77.6941 17.6585C77.3293 17.801 77.0413 18.0006 76.8304 18.2571C76.6194 18.508 76.5139 18.833 76.5139 19.2321C76.5139 19.8022 76.722 20.2327 77.1383 20.5235C77.5545 20.8142 78.0847 20.9596 78.729 20.9596Z" fill="#1C222C"/>
<path d="M62.5653 15.2724V22.9694H59.4694V9.83321H62.4285V12.0653H62.5824C62.8846 11.3298 63.3664 10.7454 64.0277 10.3121C64.6948 9.87883 65.5187 9.66217 66.4993 9.66217C67.4059 9.66217 68.1955 9.85602 68.8683 10.2437C69.5468 10.6314 70.0713 11.193 70.4419 11.9285C70.8182 12.664 71.0035 13.5563 70.9978 14.6053V22.9694H67.9019V15.0843C67.9019 14.2062 67.6738 13.5192 67.2177 13.0232C66.7673 12.5272 66.143 12.2791 65.3448 12.2791C64.8031 12.2791 64.3214 12.3989 63.8994 12.6383C63.4832 12.8721 63.1554 13.2113 62.9159 13.656C62.6822 14.1008 62.5653 14.6396 62.5653 15.2724Z" fill="#1C222C"/>
<path d="M53.19 22.9694V9.83325H56.2859V22.9694H53.19ZM54.7465 7.96887C54.2561 7.96887 53.8342 7.80637 53.4807 7.48139C53.1272 7.1507 52.9505 6.75445 52.9505 6.29263C52.9505 5.82511 53.1272 5.42886 53.4807 5.10388C53.8342 4.77319 54.2561 4.60785 54.7465 4.60785C55.2425 4.60785 55.6644 4.77319 56.0122 5.10388C56.3657 5.42886 56.5424 5.82511 56.5424 6.29263C56.5424 6.75445 56.3657 7.1507 56.0122 7.48139C55.6644 7.80637 55.2425 7.96887 54.7465 7.96887Z" fill="#1C222C"/>
<path d="M50.7654 9.83325V12.2279H43V9.83325H50.7654ZM44.9414 22.9694V8.59319C44.9414 7.70946 45.1238 6.97397 45.4887 6.38672C45.8593 5.79947 46.3553 5.36045 46.9768 5.06968C47.5982 4.7789 48.2881 4.63351 49.0464 4.63351C49.5823 4.63351 50.0584 4.67628 50.4746 4.7618C50.8908 4.84732 51.1987 4.92429 51.3983 4.99271L50.7825 7.38732C50.6514 7.34741 50.486 7.3075 50.2865 7.26759C50.0869 7.22198 49.8646 7.19918 49.6194 7.19918C49.0436 7.19918 48.6359 7.33886 48.3964 7.61823C48.1627 7.8919 48.0458 8.28531 48.0458 8.79844V22.9694H44.9414Z" fill="#1C222C"/>
<path d="M141.092 30V30.7812H137.982V30H141.092ZM138.889 28.5625H139.811V34.2812C139.811 34.5417 139.848 34.737 139.924 34.8672C140.002 34.9948 140.101 35.0807 140.221 35.125C140.343 35.1667 140.472 35.1875 140.607 35.1875C140.709 35.1875 140.792 35.1823 140.857 35.1719C140.923 35.1589 140.975 35.1484 141.014 35.1406L141.201 35.9688C141.139 35.9922 141.051 36.0156 140.939 36.0391C140.827 36.0651 140.686 36.0781 140.514 36.0781C140.253 36.0781 139.998 36.0221 139.748 35.9102C139.501 35.7982 139.295 35.6276 139.131 35.3984C138.969 35.1693 138.889 34.8802 138.889 34.5312V28.5625Z" fill="#676E7B"/>
<path d="M132.97 32.3906V36H132.048V30H132.938V30.9375H133.017C133.157 30.6328 133.371 30.388 133.657 30.2031C133.944 30.0156 134.313 29.9219 134.767 29.9219C135.173 29.9219 135.528 30.0052 135.833 30.1719C136.138 30.3359 136.375 30.5859 136.544 30.9219C136.713 31.2552 136.798 31.6771 136.798 32.1875V36H135.876V32.25C135.876 31.7786 135.754 31.4115 135.509 31.1484C135.264 30.8828 134.928 30.75 134.501 30.75C134.207 30.75 133.944 30.8138 133.712 30.9414C133.483 31.069 133.302 31.2552 133.169 31.5C133.036 31.7448 132.97 32.0417 132.97 32.3906Z" fill="#676E7B"/>
<path d="M128.161 36.125C127.583 36.125 127.084 35.9974 126.665 35.7422C126.248 35.4844 125.927 35.125 125.7 34.6641C125.476 34.2005 125.364 33.6615 125.364 33.0469C125.364 32.4323 125.476 31.8906 125.7 31.4219C125.927 30.9505 126.242 30.5833 126.646 30.3203C127.052 30.0547 127.526 29.9219 128.067 29.9219C128.38 29.9219 128.688 29.974 128.993 30.0781C129.298 30.1823 129.575 30.3516 129.825 30.5859C130.075 30.8177 130.274 31.125 130.423 31.5078C130.571 31.8906 130.646 32.362 130.646 32.9219V33.3125H126.021V32.5156H129.708C129.708 32.1771 129.64 31.875 129.505 31.6094C129.372 31.3437 129.182 31.1341 128.935 30.9805C128.69 30.8268 128.401 30.75 128.067 30.75C127.7 30.75 127.382 30.8411 127.114 31.0234C126.849 31.2031 126.644 31.4375 126.501 31.7266C126.358 32.0156 126.286 32.3255 126.286 32.6562V33.1875C126.286 33.6406 126.364 34.0247 126.521 34.3398C126.679 34.6523 126.899 34.8906 127.181 35.0547C127.462 35.2161 127.789 35.2969 128.161 35.2969C128.403 35.2969 128.622 35.263 128.817 35.1953C129.015 35.125 129.186 35.0208 129.329 34.8828C129.472 34.7422 129.583 34.5677 129.661 34.3594L130.552 34.6094C130.458 34.9115 130.3 35.1771 130.079 35.4062C129.858 35.6328 129.584 35.8099 129.259 35.9375C128.933 36.0625 128.567 36.125 128.161 36.125Z" fill="#676E7B"/>
<path d="M116.085 36V30H116.976V30.9375H117.054C117.179 30.6172 117.381 30.3685 117.659 30.1914C117.938 30.0117 118.272 29.9219 118.663 29.9219C119.059 29.9219 119.388 30.0117 119.651 30.1914C119.917 30.3685 120.124 30.6172 120.272 30.9375H120.335C120.489 30.6276 120.719 30.3815 121.026 30.1992C121.334 30.0143 121.702 29.9219 122.132 29.9219C122.668 29.9219 123.107 30.0898 123.448 30.4258C123.789 30.7591 123.96 31.2786 123.96 31.9844V36H123.038V31.9844C123.038 31.5417 122.917 31.2253 122.675 31.0352C122.433 30.8451 122.147 30.75 121.819 30.75C121.397 30.75 121.071 30.8776 120.839 31.1328C120.607 31.3854 120.491 31.7057 120.491 32.0938V36H119.554V31.8906C119.554 31.5495 119.443 31.2747 119.222 31.0664C119 30.8555 118.715 30.75 118.366 30.75C118.127 30.75 117.903 30.8138 117.694 30.9414C117.489 31.069 117.322 31.2461 117.194 31.4727C117.069 31.6966 117.007 31.9557 117.007 32.25V36H116.085Z" fill="#676E7B"/>
<path d="M112.198 36.125C111.62 36.125 111.121 35.9974 110.702 35.7422C110.285 35.4844 109.964 35.125 109.737 34.6641C109.513 34.2005 109.401 33.6615 109.401 33.0469C109.401 32.4323 109.513 31.8906 109.737 31.4219C109.964 30.9505 110.279 30.5833 110.683 30.3203C111.089 30.0547 111.563 29.9219 112.104 29.9219C112.417 29.9219 112.726 29.974 113.03 30.0781C113.335 30.1823 113.612 30.3516 113.862 30.5859C114.112 30.8177 114.312 31.125 114.46 31.5078C114.608 31.8906 114.683 32.362 114.683 32.9219V33.3125H110.058V32.5156H113.745C113.745 32.1771 113.677 31.875 113.542 31.6094C113.409 31.3437 113.219 31.1341 112.972 30.9805C112.727 30.8268 112.438 30.75 112.104 30.75C111.737 30.75 111.42 30.8411 111.151 31.0234C110.886 31.2031 110.681 31.4375 110.538 31.7266C110.395 32.0156 110.323 32.3255 110.323 32.6562V33.1875C110.323 33.6406 110.401 34.0247 110.558 34.3398C110.716 34.6523 110.937 34.8906 111.218 35.0547C111.499 35.2161 111.826 35.2969 112.198 35.2969C112.44 35.2969 112.659 35.263 112.854 35.1953C113.052 35.125 113.223 35.0208 113.366 34.8828C113.509 34.7422 113.62 34.5677 113.698 34.3594L114.589 34.6094C114.495 34.9115 114.338 35.1771 114.116 35.4062C113.895 35.6328 113.621 35.8099 113.296 35.9375C112.97 36.0625 112.604 36.125 112.198 36.125Z" fill="#676E7B"/>
<path d="M105.401 38.375C104.956 38.375 104.573 38.3177 104.253 38.2031C103.933 38.0911 103.666 37.9427 103.452 37.7578C103.241 37.5755 103.073 37.3802 102.948 37.1719L103.683 36.6562C103.766 36.7656 103.871 36.8906 103.999 37.0312C104.127 37.1745 104.301 37.2982 104.522 37.4023C104.746 37.5091 105.039 37.5625 105.401 37.5625C105.886 37.5625 106.285 37.4453 106.601 37.2109C106.916 36.9766 107.073 36.6094 107.073 36.1094V34.8906H106.995C106.927 35 106.831 35.1354 106.706 35.2969C106.584 35.4557 106.407 35.5977 106.175 35.7227C105.946 35.8451 105.636 35.9062 105.245 35.9062C104.761 35.9062 104.326 35.7917 103.94 35.5625C103.558 35.3333 103.254 35 103.03 34.5625C102.809 34.125 102.698 33.5937 102.698 32.9688C102.698 32.3542 102.806 31.819 103.022 31.3633C103.239 30.9049 103.539 30.5508 103.925 30.3008C104.31 30.0482 104.756 29.9219 105.261 29.9219C105.651 29.9219 105.961 29.987 106.19 30.1172C106.422 30.2448 106.599 30.3906 106.722 30.5547C106.847 30.7161 106.943 30.849 107.011 30.9531H107.104V30H107.995V36.1719C107.995 36.6875 107.878 37.1068 107.644 37.4297C107.412 37.7552 107.099 37.9935 106.706 38.1445C106.315 38.2982 105.881 38.375 105.401 38.375ZM105.37 35.0781C105.74 35.0781 106.052 34.9935 106.308 34.8242C106.563 34.6549 106.757 34.4115 106.89 34.0938C107.022 33.776 107.089 33.3958 107.089 32.9531C107.089 32.5208 107.024 32.1393 106.894 31.8086C106.763 31.4779 106.571 31.2188 106.315 31.0312C106.06 30.8437 105.745 30.75 105.37 30.75C104.979 30.75 104.654 30.849 104.394 31.0469C104.136 31.2448 103.942 31.5104 103.812 31.8438C103.684 32.1771 103.62 32.5469 103.62 32.9531C103.62 33.3698 103.685 33.7383 103.815 34.0586C103.948 34.3763 104.144 34.6263 104.401 34.8086C104.662 34.9883 104.985 35.0781 105.37 35.0781Z" fill="#676E7B"/>
<path d="M98.5469 36.1406C98.1667 36.1406 97.8216 36.069 97.5117 35.9258C97.2018 35.7799 96.9557 35.5703 96.7734 35.2969C96.5911 35.0208 96.5 34.6875 96.5 34.2969C96.5 33.9531 96.5677 33.6745 96.7031 33.4609C96.8385 33.2448 97.0195 33.0755 97.2461 32.9531C97.4727 32.8307 97.7227 32.7396 97.9961 32.6797C98.2721 32.6172 98.5495 32.5677 98.8281 32.5312C99.1927 32.4844 99.4883 32.4492 99.7148 32.4258C99.944 32.3997 100.111 32.3568 100.215 32.2969C100.322 32.237 100.375 32.1328 100.375 31.9844V31.9531C100.375 31.5677 100.27 31.2682 100.059 31.0547C99.8503 30.8411 99.5339 30.7344 99.1094 30.7344C98.6693 30.7344 98.3242 30.8307 98.0742 31.0234C97.8242 31.2161 97.6484 31.4219 97.5469 31.6406L96.6719 31.3281C96.8281 30.9635 97.0365 30.6797 97.2969 30.4766C97.5599 30.2708 97.8464 30.1276 98.1562 30.0469C98.4688 29.9635 98.776 29.9219 99.0781 29.9219C99.2708 29.9219 99.4922 29.9453 99.7422 29.9922C99.9948 30.0365 100.238 30.1289 100.473 30.2695C100.71 30.4102 100.906 30.6224 101.062 30.9062C101.219 31.1901 101.297 31.5703 101.297 32.0469V36H100.375V35.1875H100.328C100.266 35.3177 100.161 35.457 100.016 35.6055C99.8698 35.7539 99.6758 35.8802 99.4336 35.9844C99.1914 36.0885 98.8958 36.1406 98.5469 36.1406ZM98.6875 35.3125C99.0521 35.3125 99.3594 35.2409 99.6094 35.0977C99.862 34.9544 100.052 34.7695 100.18 34.543C100.31 34.3164 100.375 34.0781 100.375 33.8281V32.9844C100.336 33.0313 100.25 33.0742 100.117 33.1133C99.987 33.1497 99.8359 33.1823 99.6641 33.2109C99.4948 33.237 99.3294 33.2604 99.168 33.2812C99.0091 33.2995 98.8802 33.3151 98.7812 33.3281C98.5417 33.3594 98.3177 33.4102 98.1094 33.4805C97.9036 33.5482 97.737 33.651 97.6094 33.7891C97.4844 33.9245 97.4219 34.1094 97.4219 34.3438C97.4219 34.6641 97.5404 34.9062 97.7773 35.0703C98.0169 35.2318 98.3203 35.3125 98.6875 35.3125Z" fill="#676E7B"/>
<path d="M91.2686 32.3906V36H90.3467V30H91.2373V30.9375H91.3154C91.4561 30.6328 91.6696 30.388 91.9561 30.2031C92.2425 30.0156 92.6123 29.9219 93.0654 29.9219C93.4717 29.9219 93.8271 30.0052 94.1318 30.1719C94.4365 30.3359 94.6735 30.5859 94.8428 30.9219C95.012 31.2552 95.0967 31.6771 95.0967 32.1875V36H94.1748V32.25C94.1748 31.7786 94.0524 31.4115 93.8076 31.1484C93.5628 30.8828 93.2269 30.75 92.7998 30.75C92.5055 30.75 92.2425 30.8138 92.0107 30.9414C91.7816 31.069 91.6006 31.2552 91.4678 31.5C91.335 31.7448 91.2686 32.0417 91.2686 32.3906Z" fill="#676E7B"/>
<path d="M85.9141 36.1406C85.5339 36.1406 85.1888 36.069 84.8789 35.9258C84.569 35.7799 84.3229 35.5703 84.1406 35.2969C83.9583 35.0208 83.8672 34.6875 83.8672 34.2969C83.8672 33.9531 83.9349 33.6745 84.0703 33.4609C84.2057 33.2448 84.3867 33.0755 84.6133 32.9531C84.8398 32.8307 85.0898 32.7396 85.3633 32.6797C85.6393 32.6172 85.9167 32.5677 86.1953 32.5312C86.5599 32.4844 86.8555 32.4492 87.082 32.4258C87.3112 32.3997 87.4779 32.3568 87.582 32.2969C87.6888 32.237 87.7422 32.1328 87.7422 31.9844V31.9531C87.7422 31.5677 87.6367 31.2682 87.4258 31.0547C87.2174 30.8411 86.901 30.7344 86.4766 30.7344C86.0365 30.7344 85.6914 30.8307 85.4414 31.0234C85.1914 31.2161 85.0156 31.4219 84.9141 31.6406L84.0391 31.3281C84.1953 30.9635 84.4036 30.6797 84.6641 30.4766C84.9271 30.2708 85.2135 30.1276 85.5234 30.0469C85.8359 29.9635 86.1432 29.9219 86.4453 29.9219C86.638 29.9219 86.8594 29.9453 87.1094 29.9922C87.362 30.0365 87.6055 30.1289 87.8398 30.2695C88.0768 30.4102 88.2734 30.6224 88.4297 30.9062C88.5859 31.1901 88.6641 31.5703 88.6641 32.0469V36H87.7422V35.1875H87.6953C87.6328 35.3177 87.5286 35.457 87.3828 35.6055C87.237 35.7539 87.043 35.8802 86.8008 35.9844C86.5586 36.0885 86.263 36.1406 85.9141 36.1406ZM86.0547 35.3125C86.4193 35.3125 86.7266 35.2409 86.9766 35.0977C87.2292 34.9544 87.4193 34.7695 87.5469 34.543C87.6771 34.3164 87.7422 34.0781 87.7422 33.8281V32.9844C87.7031 33.0313 87.6172 33.0742 87.4844 33.1133C87.3542 33.1497 87.2031 33.1823 87.0312 33.2109C86.862 33.237 86.6966 33.2604 86.5352 33.2812C86.3763 33.2995 86.2474 33.3151 86.1484 33.3281C85.9089 33.3594 85.6849 33.4102 85.4766 33.4805C85.2708 33.5482 85.1042 33.651 84.9766 33.7891C84.8516 33.9245 84.7891 34.1094 84.7891 34.3438C84.7891 34.6641 84.9076 34.9062 85.1445 35.0703C85.3841 35.2318 85.6875 35.3125 86.0547 35.3125Z" fill="#676E7B"/>
<path d="M74.5879 36V30H75.4785V30.9375H75.5566C75.6816 30.6172 75.8835 30.3685 76.1621 30.1914C76.4408 30.0117 76.7754 29.9219 77.166 29.9219C77.5618 29.9219 77.8913 30.0117 78.1543 30.1914C78.4199 30.3685 78.627 30.6172 78.7754 30.9375H78.8379C78.9915 30.6276 79.222 30.3815 79.5293 30.1992C79.8366 30.0143 80.2051 29.9219 80.6348 29.9219C81.1712 29.9219 81.61 30.0898 81.9512 30.4258C82.2923 30.7591 82.4629 31.2786 82.4629 31.9844V36H81.541V31.9844C81.541 31.5417 81.4199 31.2253 81.1777 31.0352C80.9355 30.8451 80.6504 30.75 80.3223 30.75C79.9004 30.75 79.5736 30.8776 79.3418 31.1328C79.11 31.3854 78.9941 31.7057 78.9941 32.0938V36H78.0566V31.8906C78.0566 31.5495 77.946 31.2747 77.7246 31.0664C77.5033 30.8555 77.2181 30.75 76.8691 30.75C76.6296 30.75 76.4056 30.8138 76.1973 30.9414C75.9915 31.069 75.8249 31.2461 75.6973 31.4727C75.5723 31.6966 75.5098 31.9557 75.5098 32.25V36H74.5879Z" fill="#676E7B"/>
<path d="M69.8057 28V36H68.8838V28H69.8057Z" fill="#676E7B"/>
<path d="M64.9971 36.125C64.4189 36.125 63.9202 35.9974 63.501 35.7422C63.0843 35.4844 62.7627 35.125 62.5361 34.6641C62.3122 34.2005 62.2002 33.6615 62.2002 33.0469C62.2002 32.4323 62.3122 31.8906 62.5361 31.4219C62.7627 30.9505 63.0778 30.5833 63.4814 30.3203C63.8877 30.0547 64.3617 29.9219 64.9033 29.9219C65.2158 29.9219 65.5244 29.974 65.8291 30.0781C66.1338 30.1823 66.4111 30.3516 66.6611 30.5859C66.9111 30.8177 67.1104 31.125 67.2588 31.5078C67.4072 31.8906 67.4814 32.362 67.4814 32.9219V33.3125H62.8564V32.5156H66.5439C66.5439 32.1771 66.4762 31.875 66.3408 31.6094C66.208 31.3437 66.0179 31.1341 65.7705 30.9805C65.5257 30.8268 65.2367 30.75 64.9033 30.75C64.5361 30.75 64.2184 30.8411 63.9502 31.0234C63.6846 31.2031 63.4801 31.4375 63.3369 31.7266C63.1937 32.0156 63.1221 32.3255 63.1221 32.6562V33.1875C63.1221 33.6406 63.2002 34.0247 63.3564 34.3398C63.5153 34.6523 63.7354 34.8906 64.0166 35.0547C64.2979 35.2161 64.6247 35.2969 64.9971 35.2969C65.2393 35.2969 65.458 35.263 65.6533 35.1953C65.8512 35.125 66.0218 35.0208 66.165 34.8828C66.3083 34.7422 66.4189 34.5677 66.4971 34.3594L67.3877 34.6094C67.2939 34.9115 67.1364 35.1771 66.915 35.4062C66.6937 35.6328 66.4202 35.8099 66.0947 35.9375C65.7692 36.0625 65.4033 36.125 64.9971 36.125Z" fill="#676E7B"/>
<path d="M61.1592 30V30.7812H58.0498V30H61.1592ZM58.9561 28.5625H59.8779V34.2812C59.8779 34.5417 59.9157 34.737 59.9912 34.8672C60.0693 34.9948 60.1683 35.0807 60.2881 35.125C60.4105 35.1667 60.5394 35.1875 60.6748 35.1875C60.7764 35.1875 60.8597 35.1823 60.9248 35.1719C60.9899 35.1589 61.042 35.1484 61.0811 35.1406L61.2686 35.9688C61.2061 35.9922 61.1188 36.0156 61.0068 36.0391C60.8949 36.0651 60.7529 36.0781 60.5811 36.0781C60.3206 36.0781 60.0654 36.0221 59.8154 35.9102C59.568 35.7982 59.3623 35.6276 59.1982 35.3984C59.0368 35.1693 58.9561 34.8802 58.9561 34.5312V28.5625Z" fill="#676E7B"/>
<path d="M54.4238 36.125C53.8822 36.125 53.4069 35.9961 52.998 35.7383C52.5918 35.4805 52.2741 35.1198 52.0449 34.6562C51.8184 34.1927 51.7051 33.651 51.7051 33.0312C51.7051 32.4062 51.8184 31.8607 52.0449 31.3945C52.2741 30.9284 52.5918 30.5664 52.998 30.3086C53.4069 30.0508 53.8822 29.9219 54.4238 29.9219C54.9655 29.9219 55.4395 30.0508 55.8457 30.3086C56.2546 30.5664 56.5723 30.9284 56.7988 31.3945C57.028 31.8607 57.1426 32.4062 57.1426 33.0312C57.1426 33.651 57.028 34.1927 56.7988 34.6562C56.5723 35.1198 56.2546 35.4805 55.8457 35.7383C55.4395 35.9961 54.9655 36.125 54.4238 36.125ZM54.4238 35.2969C54.8353 35.2969 55.1738 35.1914 55.4395 34.9805C55.7051 34.7695 55.9017 34.4922 56.0293 34.1484C56.1569 33.8047 56.2207 33.4323 56.2207 33.0312C56.2207 32.6302 56.1569 32.2565 56.0293 31.9102C55.9017 31.5638 55.7051 31.2839 55.4395 31.0703C55.1738 30.8568 54.8353 30.75 54.4238 30.75C54.0124 30.75 53.6738 30.8568 53.4082 31.0703C53.1426 31.2839 52.946 31.5638 52.8184 31.9102C52.6908 32.2565 52.627 32.6302 52.627 33.0312C52.627 33.4323 52.6908 33.8047 52.8184 34.1484C52.946 34.4922 53.1426 34.7695 53.4082 34.9805C53.6738 35.1914 54.0124 35.2969 54.4238 35.2969Z" fill="#676E7B"/>
<path d="M43.9688 36V28H44.9375V31.5625H49.2031V28H50.1719V36H49.2031V32.4219H44.9375V36H43.9688Z" fill="#676E7B"/>
<defs>
<filter id="filter0_i_3_3223" x="0" y="2" width="36" height="36" filterUnits="userSpaceOnUse" color-interpolation-filters="sRGB">
<feFlood flood-opacity="0" result="BackgroundImageFix"/>
<feBlend mode="normal" in="SourceGraphic" in2="BackgroundImageFix" result="shape"/>
<feColorMatrix in="SourceAlpha" type="matrix" values="0 0 0 0 0 0 0 0 0 0 0 0 0 0 0 0 0 0 127 0" result="hardAlpha"/>
<feOffset dy="2"/>
<feComposite in2="hardAlpha" operator="arithmetic" k2="-1" k3="1"/>
<feColorMatrix type="matrix" values="0 0 0 0 1 0 0 0 0 1 0 0 0 0 1 0 0 0 0.25 0"/>
<feBlend mode="normal" in2="shape" result="effect1_innerShadow_3_3223"/>
</filter>
<linearGradient id="paint0_linear_3_3223" x1="18" y1="-0.700001" x2="29.7" y2="38" gradientUnits="userSpaceOnUse">
<stop stop-color="#3DA2FF"/>
<stop offset="1" stop-color="#1C64F2"/>
</linearGradient>
</defs>
</svg>
